<svg xmlns="http://www.w3.org/2000/svg" viewBox="0 0 256 256" role="img" aria-label="Privex AI logo">
  <defs>
    <linearGradient id="shieldGrad" x1="0%" y1="0%" x2="100%" y2="100%">
      <stop offset="0%" stop-color="#6366f1"/>
      <stop offset="50%" stop-color="#a855f7"/>
      <stop offset="100%" stop-color="#06b6d4"/>
    </linearGradient>
    <filter id="glow" x="-50%" y="-50%" width="200%" height="200%">
      <feGaussianBlur stdDeviation="3" result="blur"/>
      <feMerge>
        <feMergeNode in="blur"/>
        <feMergeNode in="SourceGraphic"/>
      </feMerge>
    </filter>
  </defs>
  <path d="M128 16 42 48v66c0 58 38 104 86 126 48-22 86-68 86-126V48z" fill="url(#shieldGrad)"/>
  <g stroke="#fff" stroke-width="6" fill="none" filter="url(#glow)">
    <circle cx="84" cy="98" r="8" fill="#fff"/>
    <circle cx="128" cy="82" r="8" fill="#fff"/>
    <circle cx="172" cy="108" r="8" fill="#fff"/>
    <circle cx="104" cy="146" r="8" fill="#fff"/>
    <circle cx="152" cy="156" r="8" fill="#fff"/>
    <path d="M92 98 120 84M136 86 164 104M90 104 102 138M110 146 146 156M166 114 154 148"/>
  </g>
</svg>
